<svg width="481" height="131" viewBox="0 0 481 131" fill="none" xmlns="http://www.w3.org/2000/svg">
<g clip-path="url(#clip0_28_90)">
<rect width="481" height="131" fill="#0D0D0D"/>
<rect width="481" height="131" fill="#FFF4D6"/>
<path d="M34.049 3.43407C31.531 2.96052 28.7132 3.82666 26.4023 5.78179C23.8176 7.97985 21.8693 11.5926 21.4124 15.0475C20.8163 19.4477 22.4008 23.1475 25.5046 24.6648C26.6435 25.2113 27.4514 25.4049 28.5921 25.4116C33.2631 25.421 37.9517 21.0437 39.443 15.2844C40.4648 11.338 39.6544 7.45516 37.3017 5.14755C36.635 4.48099 34.9653 3.61036 34.049 3.43407Z" fill="#F7C842" fill-opacity="0.45"/>
<path d="M52.2801 12.0723C49.2678 11.3477 46.0159 12.463 43.3751 15.1056C39.4526 19.0187 37.9505 25.6046 40.025 29.803C40.8585 31.4924 41.8911 32.5287 43.5182 33.3095C46.6436 34.7817 50.5212 33.7032 53.5811 30.4853C55.9905 27.9674 57.5901 24.1874 57.6878 20.7958C57.772 17.7304 56.6554 14.9623 54.6774 13.3337C54.1139 12.8692 52.8572 12.2106 52.2801 12.0723Z" fill="#F7C842" fill-opacity="0.45"/>
<path d="M11.5641 11.5553C10.3729 11.3857 9.60093 11.4451 8.59076 11.7922C7.49544 12.1677 6.55142 12.8239 5.58301 13.8288C5.02148 14.4328 4.79652 14.7824 4.21865 16.0164C3.40821 17.7349 3.12307 18.9846 3.12811 20.7617C3.15134 22.1732 3.27606 22.9263 3.71882 24.1786C5.8805 30.2213 12.691 30.8969 15.9257 25.3782C17.2644 23.0951 17.7115 20.4951 17.2044 17.7977C16.6202 14.6056 14.1997 11.9328 11.5641 11.5553Z" fill="#F7C842" fill-opacity="0.45"/>
<path d="M59.9239 34.6385C58.3692 34.1836 55.8065 34.5482 54.0682 35.4887C49.7219 37.8119 47.4218 42.5452 48.7533 46.4147C49.3647 48.1501 50.4818 49.3379 52.1629 50.006C54.2151 50.8245 56.8841 50.5663 59.1067 49.3314C60.0207 48.8272 61.3638 47.697 62.1519 46.7997C63.206 45.5863 64.239 43.4338 64.435 42.0721C64.6131 40.6879 64.5344 39.5409 64.1422 38.4514C63.4633 36.5589 62.0277 35.2599 59.9239 34.6385Z" fill="#F7C842" fill-opacity="0.45"/>
<path d="M32.0193 28.8172C30.003 28.2516 28.7019 28.0432 26.9123 27.9885C20.2641 27.7789 12.8243 30.9469 7.81437 36.1129C6.50639 37.4679 5.7764 38.3931 4.86114 39.8534C2.99738 42.8134 2.54526 45.0366 3.37003 47.221C4.07053 49.0684 5.22717 50.2336 7.67714 51.5341C9.38794 52.4383 10.7482 52.9109 15.8166 54.3865C21.5379 56.0507 21.3287 55.9503 26.7503 59.7584C30.3531 62.2916 32.1207 63.3755 33.8258 64.0829C38.1643 65.8877 41.4845 64.9577 43.5249 61.3614C44.5389 59.5465 45.3144 57.007 45.6544 54.2724C46.5503 47.1321 44.3611 39.3293 40.0447 34.2908C38.2063 32.1329 37.1399 31.3161 34.4653 29.9771C33.2907 29.3857 32.1929 28.8727 32.0193 28.8172Z" fill="#F7C842" fill-opacity="0.45"/>
<path d="M116.049 62.4341C113.531 61.9605 110.713 62.8267 108.402 64.7818C105.818 66.9799 103.869 70.5926 103.412 74.0475C102.816 78.4477 104.401 82.1475 107.505 83.6648C108.644 84.2113 109.451 84.4049 110.592 84.4116C115.263 84.421 119.952 80.0437 121.443 74.2844C122.465 70.338 121.654 66.4552 119.302 64.1476C118.635 63.481 116.965 62.6104 116.049 62.4341Z" fill="#F7C842" fill-opacity="0.45"/>
<path d="M134.28 71.0723C131.268 70.3477 128.016 71.463 125.375 74.1056C121.453 78.0187 119.951 84.6046 122.025 88.803C122.859 90.4924 123.891 91.5287 125.518 92.3095C128.644 93.7817 132.521 92.7032 135.581 89.4853C137.991 86.9674 139.59 83.1874 139.688 79.7958C139.772 76.7304 138.655 73.9623 136.677 72.3337C136.114 71.8692 134.857 71.2106 134.28 71.0723Z" fill="#F7C842" fill-opacity="0.45"/>
<path d="M93.5641 70.5553C92.3729 70.3857 91.6009 70.4451 90.5908 70.7922C89.4954 71.1677 88.5514 71.8239 87.583 72.8288C87.0215 73.4328 86.7965 73.7824 86.2186 75.0164C85.4082 76.7349 85.1231 77.9846 85.1281 79.7617C85.1513 81.1732 85.2761 81.9263 85.7188 83.1786C87.8805 89.2213 94.691 89.8969 97.9257 84.3782C99.2644 82.0951 99.7115 79.4951 99.2044 76.7977C98.6202 73.6056 96.1997 70.9328 93.5641 70.5553Z" fill="#F7C842" fill-opacity="0.45"/>
<path d="M141.924 93.6385C140.369 93.1836 137.806 93.5482 136.068 94.4887C131.722 96.8119 129.422 101.545 130.753 105.415C131.365 107.15 132.482 108.338 134.163 109.006C136.215 109.824 138.884 109.566 141.107 108.331C142.021 107.827 143.364 106.697 144.152 105.8C145.206 104.586 146.239 102.434 146.435 101.072C146.613 99.6879 146.534 98.5409 146.142 97.4514C145.463 95.5589 144.028 94.2599 141.924 93.6385Z" fill="#F7C842" fill-opacity="0.45"/>
<path d="M114.019 87.8172C112.003 87.2516 110.702 87.0432 108.912 86.9885C102.264 86.7789 94.8243 89.9469 89.8144 95.1129C88.5064 96.4679 87.7764 97.3931 86.8611 98.8534C84.9974 101.813 84.5453 104.037 85.37 106.221C86.0705 108.068 87.2272 109.234 89.6771 110.534C91.3879 111.438 92.7482 111.911 97.8166 113.387C103.538 115.051 103.329 114.95 108.75 118.758C112.353 121.292 114.121 122.376 115.826 123.083C120.164 124.888 123.485 123.958 125.525 120.361C126.539 118.546 127.314 116.007 127.654 113.272C128.55 106.132 126.361 98.3293 122.045 93.2908C120.206 91.1329 119.14 90.3161 116.465 88.9771C115.291 88.3857 114.193 87.8727 114.019 87.8172Z" fill="#F7C842" fill-opacity="0.45"/>
<path d="M198.049 3.43407C195.531 2.96052 192.713 3.82666 190.402 5.78179C187.818 7.97985 185.869 11.5926 185.412 15.0475C184.816 19.4477 186.401 23.1475 189.505 24.6648C190.644 25.2113 191.451 25.4049 192.592 25.4116C197.263 25.421 201.952 21.0437 203.443 15.2844C204.465 11.338 203.654 7.45516 201.302 5.14755C200.635 4.48099 198.965 3.61036 198.049 3.43407Z" fill="#F7C842" fill-opacity="0.45"/>
<path d="M216.28 12.0723C213.268 11.3477 210.016 12.463 207.375 15.1056C203.453 19.0187 201.951 25.6046 204.025 29.803C204.859 31.4924 205.891 32.5287 207.518 33.3095C210.644 34.7817 214.521 33.7032 217.581 30.4853C219.991 27.9674 221.59 24.1874 221.688 20.7958C221.772 17.7304 220.655 14.9623 218.677 13.3337C218.114 12.8692 216.857 12.2106 216.28 12.0723Z" fill="#F7C842" fill-opacity="0.45"/>
<path d="M175.564 11.5553C174.373 11.3857 173.601 11.4451 172.591 11.7922C171.495 12.1677 170.551 12.8239 169.583 13.8288C169.021 14.4328 168.797 14.7824 168.219 16.0164C167.408 17.7349 167.123 18.9846 167.128 20.7617C167.151 22.1732 167.276 22.9263 167.719 24.1786C169.881 30.2213 176.691 30.8969 179.926 25.3782C181.264 23.0951 181.712 20.4951 181.204 17.7977C180.62 14.6056 178.2 11.9328 175.564 11.5553Z" fill="#F7C842" fill-opacity="0.45"/>
<path d="M223.924 34.6385C222.369 34.1836 219.806 34.5482 218.068 35.4887C213.722 37.8119 211.422 42.5452 212.753 46.4147C213.365 48.1501 214.482 49.3379 216.163 50.006C218.215 50.8245 220.884 50.5663 223.107 49.3314C224.021 48.8272 225.364 47.697 226.152 46.7997C227.206 45.5863 228.239 43.4338 228.435 42.0721C228.613 40.6879 228.534 39.5409 228.142 38.4514C227.463 36.5589 226.028 35.2599 223.924 34.6385Z" fill="#F7C842" fill-opacity="0.45"/>
<path d="M196.019 28.8172C194.003 28.2516 192.702 28.0432 190.912 27.9885C184.264 27.7789 176.824 30.9469 171.814 36.1129C170.506 37.4679 169.776 38.3931 168.861 39.8534C166.997 42.8134 166.545 45.0366 167.37 47.221C168.071 49.0684 169.227 50.2336 171.677 51.5341C173.388 52.4383 174.748 52.9109 179.817 54.3865C185.538 56.0507 185.329 55.9503 190.75 59.7584C194.353 62.2916 196.121 63.3755 197.826 64.0829C202.164 65.8877 205.485 64.9577 207.525 61.3614C208.539 59.5465 209.314 57.007 209.654 54.2724C210.55 47.1321 208.361 39.3293 204.045 34.2908C202.206 32.1329 201.14 31.3161 198.465 29.9771C197.291 29.3857 196.193 28.8727 196.019 28.8172Z" fill="#F7C842" fill-opacity="0.45"/>
<path d="M280.049 62.4341C277.531 61.9605 274.713 62.8267 272.402 64.7818C269.818 66.9799 267.869 70.5926 267.412 74.0475C266.816 78.4477 268.401 82.1475 271.505 83.6648C272.644 84.2113 273.451 84.4049 274.592 84.4116C279.263 84.421 283.952 80.0437 285.443 74.2844C286.465 70.338 285.654 66.4552 283.302 64.1476C282.635 63.481 280.965 62.6104 280.049 62.4341Z" fill="#F7C842" fill-opacity="0.45"/>
<path d="M298.28 71.0723C295.268 70.3477 292.016 71.463 289.375 74.1056C285.453 78.0187 283.951 84.6046 286.025 88.803C286.859 90.4924 287.891 91.5287 289.518 92.3095C292.644 93.7817 296.521 92.7032 299.581 89.4853C301.991 86.9674 303.59 83.1874 303.688 79.7958C303.772 76.7304 302.655 73.9623 300.677 72.3337C300.114 71.8692 298.857 71.2106 298.28 71.0723Z" fill="#F7C842" fill-opacity="0.45"/>
<path d="M257.564 70.5553C256.373 70.3857 255.601 70.4451 254.591 70.7922C253.495 71.1677 252.551 71.8239 251.583 72.8288C251.021 73.4328 250.797 73.7824 250.219 75.0164C249.408 76.7349 249.123 77.9846 249.128 79.7617C249.151 81.1732 249.276 81.9263 249.719 83.1786C251.881 89.2213 258.691 89.8969 261.926 84.3782C263.264 82.0951 263.712 79.4951 263.204 76.7977C262.62 73.6056 260.2 70.9328 257.564 70.5553Z" fill="#F7C842" fill-opacity="0.45"/>
<path d="M305.924 93.6385C304.369 93.1836 301.806 93.5482 300.068 94.4887C295.722 96.8119 293.422 101.545 294.753 105.415C295.365 107.15 296.482 108.338 298.163 109.006C300.215 109.824 302.884 109.566 305.107 108.331C306.021 107.827 307.364 106.697 308.152 105.8C309.206 104.586 310.239 102.434 310.435 101.072C310.613 99.6879 310.534 98.5409 310.142 97.4514C309.463 95.5589 308.028 94.2599 305.924 93.6385Z" fill="#F7C842" fill-opacity="0.45"/>
<path d="M278.019 87.8172C276.003 87.2516 274.702 87.0432 272.912 86.9885C266.264 86.7789 258.824 89.9469 253.814 95.1129C252.506 96.4679 251.776 97.3931 250.861 98.8534C248.997 101.813 248.545 104.037 249.37 106.221C250.071 108.068 251.227 109.234 253.677 110.534C255.388 111.438 256.748 111.911 261.817 113.387C267.538 115.051 267.329 114.95 272.75 118.758C276.353 121.292 278.121 122.376 279.826 123.083C284.164 124.888 287.485 123.958 289.525 120.361C290.539 118.546 291.314 116.007 291.654 113.272C292.55 106.132 290.361 98.3293 286.045 93.2908C284.206 91.1329 283.14 90.3161 280.465 88.9771C279.291 88.3857 278.193 87.8727 278.019 87.8172Z" fill="#F7C842" fill-opacity="0.45"/>
<path d="M362.049 3.43407C359.531 2.96052 356.713 3.82666 354.402 5.78179C351.818 7.97985 349.869 11.5926 349.412 15.0475C348.816 19.4477 350.401 23.1475 353.505 24.6648C354.644 25.2113 355.451 25.4049 356.592 25.4116C361.263 25.421 365.952 21.0437 367.443 15.2844C368.465 11.338 367.654 7.45516 365.302 5.14755C364.635 4.48099 362.965 3.61036 362.049 3.43407Z" fill="#F7C842" fill-opacity="0.45"/>
<path d="M380.28 12.0723C377.268 11.3477 374.016 12.463 371.375 15.1056C367.453 19.0187 365.951 25.6046 368.025 29.803C368.859 31.4924 369.891 32.5287 371.518 33.3095C374.644 34.7817 378.521 33.7032 381.581 30.4853C383.991 27.9674 385.59 24.1874 385.688 20.7958C385.772 17.7304 384.655 14.9623 382.677 13.3337C382.114 12.8692 380.857 12.2106 380.28 12.0723Z" fill="#F7C842" fill-opacity="0.45"/>
<path d="M339.564 11.5553C338.373 11.3857 337.601 11.4451 336.591 11.7922C335.495 12.1677 334.551 12.8239 333.583 13.8288C333.021 14.4328 332.797 14.7824 332.219 16.0164C331.408 17.7349 331.123 18.9846 331.128 20.7617C331.151 22.1732 331.276 22.9263 331.719 24.1786C333.881 30.2213 340.691 30.8969 343.926 25.3782C345.264 23.0951 345.712 20.4951 345.204 17.7977C344.62 14.6056 342.2 11.9328 339.564 11.5553Z" fill="#F7C842" fill-opacity="0.45"/>
<path d="M387.924 34.6385C386.369 34.1836 383.806 34.5482 382.068 35.4887C377.722 37.8119 375.422 42.5452 376.753 46.4147C377.365 48.1501 378.482 49.3379 380.163 50.006C382.215 50.8245 384.884 50.5663 387.107 49.3314C388.021 48.8272 389.364 47.697 390.152 46.7997C391.206 45.5863 392.239 43.4338 392.435 42.0721C392.613 40.6879 392.534 39.5409 392.142 38.4514C391.463 36.5589 390.028 35.2599 387.924 34.6385Z" fill="#F7C842" fill-opacity="0.45"/>
<path d="M360.019 28.8172C358.003 28.2516 356.702 28.0432 354.912 27.9885C348.264 27.7789 340.824 30.9469 335.814 36.1129C334.506 37.4679 333.776 38.3931 332.861 39.8534C330.997 42.8134 330.545 45.0366 331.37 47.221C332.071 49.0684 333.227 50.2336 335.677 51.5341C337.388 52.4383 338.748 52.9109 343.817 54.3865C349.538 56.0507 349.329 55.9503 354.75 59.7584C358.353 62.2916 360.121 63.3755 361.826 64.0829C366.164 65.8877 369.485 64.9577 371.525 61.3614C372.539 59.5465 373.314 57.007 373.654 54.2724C374.55 47.1321 372.361 39.3293 368.045 34.2908C366.206 32.1329 365.14 31.3161 362.465 29.9771C361.291 29.3857 360.193 28.8727 360.019 28.8172Z" fill="#F7C842" fill-opacity="0.45"/>
<path d="M444.049 62.4341C441.531 61.9605 438.713 62.8267 436.402 64.7818C433.818 66.9799 431.869 70.5926 431.412 74.0475C430.816 78.4477 432.401 82.1475 435.505 83.6648C436.644 84.2113 437.451 84.4049 438.592 84.4116C443.263 84.421 447.952 80.0437 449.443 74.2844C450.465 70.338 449.654 66.4552 447.302 64.1476C446.635 63.481 444.965 62.6104 444.049 62.4341Z" fill="#F7C842" fill-opacity="0.45"/>
<path d="M462.28 71.0723C459.268 70.3477 456.016 71.463 453.375 74.1056C449.453 78.0187 447.951 84.6046 450.025 88.803C450.859 90.4924 451.891 91.5287 453.518 92.3095C456.644 93.7817 460.521 92.7032 463.581 89.4853C465.991 86.9674 467.59 83.1874 467.688 79.7958C467.772 76.7304 466.655 73.9623 464.677 72.3337C464.114 71.8692 462.857 71.2106 462.28 71.0723Z" fill="#F7C842" fill-opacity="0.45"/>
<path d="M421.564 70.5553C420.373 70.3857 419.601 70.4451 418.591 70.7922C417.495 71.1677 416.551 71.8239 415.583 72.8288C415.021 73.4328 414.797 73.7824 414.219 75.0164C413.408 76.7349 413.123 77.9846 413.128 79.7617C413.151 81.1732 413.276 81.9263 413.719 83.1786C415.881 89.2213 422.691 89.8969 425.926 84.3782C427.264 82.0951 427.712 79.4951 427.204 76.7977C426.62 73.6056 424.2 70.9328 421.564 70.5553Z" fill="#F7C842" fill-opacity="0.45"/>
<path d="M469.924 93.6385C468.369 93.1836 465.806 93.5482 464.068 94.4887C459.722 96.8119 457.422 101.545 458.753 105.415C459.365 107.15 460.482 108.338 462.163 109.006C464.215 109.824 466.884 109.566 469.107 108.331C470.021 107.827 471.364 106.697 472.152 105.8C473.206 104.586 474.239 102.434 474.435 101.072C474.613 99.6879 474.534 98.5409 474.142 97.4514C473.463 95.5589 472.028 94.2599 469.924 93.6385Z" fill="#F7C842" fill-opacity="0.45"/>
<path d="M442.019 87.8172C440.003 87.2516 438.702 87.0432 436.912 86.9885C430.264 86.7789 422.824 89.9469 417.814 95.1129C416.506 96.4679 415.776 97.3931 414.861 98.8534C412.997 101.813 412.545 104.037 413.37 106.221C414.071 108.068 415.227 109.234 417.677 110.534C419.388 111.438 420.748 111.911 425.817 113.387C431.538 115.051 431.329 114.95 436.75 118.758C440.353 121.292 442.121 122.376 443.826 123.083C448.164 124.888 451.485 123.958 453.525 120.361C454.539 118.546 455.314 116.007 455.654 113.272C456.55 106.132 454.361 98.3293 450.045 93.2908C448.206 91.1329 447.14 90.3161 444.465 88.9771C443.291 88.3857 442.193 87.8727 442.019 87.8172Z" fill="#F7C842" fill-opacity="0.45"/>
</g>
<defs>
<clipPath id="clip0_28_90">
<rect width="481" height="131" fill="white"/>
</clipPath>
</defs>
</svg>
